# xmcd CD database file
#
# Track frame offsets:
#	182
#	12412
#	22805
#	40062
#	51577
#	67900
#	83637
#	98297
#	121455
#	142340
#	155282
#	176230
#	190260
#	209625
#
# Disc length: 3026 seconds
#
# Revision: 3
# Processed by: cddbd v1.5.1PL2 Copyright (c) Steve Scherf et al.
# Submitted via: CDex 1.51
#
DISCID=bd0bd00e
DTITLE=Willie Nelson - Teatro
DYEAR=1998
DGENRE=Country
TTITLE0=Ou Es Tu, Mon Amour (Where Are You, My Love)
TTITLE1=I Never Cared for You
TTITLE2=Everywhere I Go
TTITLE3=Darkness on the Face of the Earth
TTITLE4=My Own Peculiar Way
TTITLE5=These Lonely Nights
TTITLE6=Home Motel
TTITLE7=The Maker
TTITLE8=I Just Can't Let You Say Good-bye
TTITLE9=I've Just Destroyed the World
TTITLE10=Somebody Pick Up My Pieces
TTITLE11=Three Days
TTITLE12=I've Loved You All Over the World
TTITLE13=Annie
EXTD=YEAR: 1998
EXTT0=
EXTT1=
EXTT2=
EXTT3=
EXTT4=
EXTT5=
EXTT6=
EXTT7=
EXTT8=
EXTT9=
EXTT10=
EXTT11=
EXTT12=
EXTT13=
PLAYORDER=
